<svg width="46" height="46" viewBox="0 0 46 46" fill="none" xmlns="http://www.w3.org/2000/svg">
<path d="M33.0096 23.7544V35.4476C33.0096 36.0652 32.8059 36.6367 32.4622 37.0967C31.9585 37.7706 31.1558 38.2065 30.2508 38.2065H6.63091C5.72471 38.2065 4.92086 37.7706 4.41831 37.0967C4.38151 37.0473 4.34586 36.9967 4.31251 36.9438C4.02361 36.4983 3.8702 35.9786 3.87091 35.4476V11.8276C3.87091 10.3027 5.10601 9.06891 6.63091 9.06891H30.2508C31.2697 9.06891 32.1599 9.62091 32.637 10.4432L28.8397 14.2415L20.4355 22.6468L14.3141 16.5255C13.2331 15.4445 11.0722 15.4445 9.99351 16.5255L7.47271 19.0452C7.08976 19.4281 6.84251 19.9468 6.73211 20.5044C6.52741 21.5198 6.77466 22.6687 7.47271 23.3669L18.2747 34.1688C19.3545 35.2487 21.5142 35.2487 22.5952 34.1688L25.116 31.648L33.0096 23.7544Z" fill="#EBEAEA"/>
<path d="M41.3183 15.4444L33.0096 23.7544L25.116 31.648L22.5952 34.1688C21.5142 35.2487 19.3545 35.2487 18.2746 34.1688L7.47269 23.3669C6.77464 22.6688 6.52739 21.5199 6.73209 20.5044C6.84249 19.9467 7.08974 19.4281 7.47269 19.0452L9.99349 16.5255C11.0722 15.4445 13.233 15.4445 14.314 16.5255L20.4355 22.6469L28.8397 14.2415L32.637 10.4432L34.477 8.60433C35.558 7.52333 37.7188 7.52333 38.7975 8.60433L41.3183 11.124C41.6127 11.4194 41.8278 11.7944 41.9612 12.206C42.3188 13.3031 42.1038 14.659 41.3183 15.4444Z" fill="#62D7F1"/>
</svg>
